<svg xmlns="http://www.w3.org/2000/svg" xmlns:xlink="http://www.w3.org/1999/xlink" viewBox="0 0 48 48"><style>g.social-icon { visibility: hidden } g.social-icon:target { visibility: visible }</style>
<g id="buffer" class="social-icon"><path fill="#333333" d="M22.81235,0.26375L1.17026,10.37494c-0.64935,0.30337-0.64666,1.22771,0.00445,1.5273l21.80884,10.03483&#10;&#9;c0.64513,0.29684,1.38778,0.29684,2.03291,0l21.80885-10.03483c0.6511-0.29959,0.65379-1.22392,0.00445-1.5273L25.18764,0.26375&#10;&#9;C24.43493-0.08792,23.56506-0.08792,22.81235,0.26375z"/><path fill="#333333" d="M46.82974,23.35217l-4.46971-2.08825c-0.64787-0.30268-1.39613-0.30486-2.04575-0.00595l-15.29784,7.03894&#10;&#9;c-0.64513,0.29684-1.38778,0.29684-2.03291,0L7.68571,21.25797c-0.64962-0.29891-1.39788-0.29673-2.04575,0.00596l-4.46971,2.08825&#10;&#9;c-0.64935,0.30338-0.64665,1.22771,0.00445,1.5273L22.98354,34.9143c0.64513,0.29684,1.38778,0.29684,2.03291,0l21.80885-10.03483&#10;&#9;C47.4764,24.57988,47.47909,23.65554,46.82974,23.35217z"/><path fill="#333333" d="M46.82974,36.21524l-4.46971-2.08825c-0.64787-0.30268-1.39613-0.30486-2.04575-0.00595l-15.29784,7.03894&#10;&#9;c-0.64513,0.29684-1.38778,0.29684-2.03291,0L7.68571,34.12103c-0.64962-0.29891-1.39788-0.29673-2.04575,0.00596l-4.46971,2.08825&#10;&#9;c-0.64935,0.30338-0.64665,1.22771,0.00445,1.52729l21.80884,10.03483c0.64513,0.29684,1.38778,0.29684,2.03291,0l21.80885-10.03483&#10;&#9;C47.4764,37.44295,47.47909,36.51861,46.82974,36.21524z"/></g>
<g id="facebook" class="social-icon"><path fill="#39579A" d="M46,48c1.10457,0,2-0.89543,2-2V2c0-1.10457-0.89543-2-2-2H2C0.89543,0,0,0.89543,0,2v44&#10;&#9;c0,1.10457,0.89543,2,2,2H46z"/><path fill="#FFFFFF" d="M25.51917,48V29H19v-7l6.51917,0v-5.17462c0-6.19977,3.78661-9.57566,9.31723-9.57566&#10;&#9;c2.64922,0,4.92609,0.19724,5.58964,0.2854v6.47912l-3.83578,0.00174C33.5824,14.01598,33,15.44527,33,17.54265V22h7l-1,7h-6v19&#10;&#9;H25.51917z"/></g>
<g id="googleplus" class="social-icon"><path fill="#DE4D3B" d="M48,22h-4v-4h-4v4h-4v4h4v4h4v-4h4V22z"/><path fill="#DE4D3B" d="M33.05286,22.00891L18,22v6h8.60217c-0.46423,2.53943-3.0072,7.17175-9.60217,7.17175&#10;&#9;c-5.80432,0-10.54004-4.80859-10.54004-10.73425c0-5.92567,4.73572-10.73426,10.54004-10.73426&#10;&#9;c3.30286,0,5.51282,1.40857,6.77576,2.6228l4.61426-4.44421C25.42712,9.11316,21.58997,7.43751,17,7.43751&#10;&#9;c-9.39856,0-17,7.60143-17,17c0,9.39855,7.60144,17,17,17C28.69557,41.43751,34.71981,31.73002,33.05286,22.00891z"/></g>
<g id="linkedin" class="social-icon"><path fill="#007BB5" d="M44.44853,0H3.54103C1.58791,0,0.00067,1.54948,0.00067,3.46093V44.5364&#10;&#9;C0.00067,46.44787,1.58791,48,3.54103,48h40.90751c1.95707,0,3.5508-1.55213,3.5508-3.4636V3.46093&#10;&#9;C47.99933,1.54948,46.4056,0,44.44853,0z"/><path fill="#FFFFFF" d="M7.11264,17.9948h7.12629v22.90627H7.11264V17.9948z M10.67775,6.60807&#10;&#9;c2.27735,0,4.12625,1.84961,4.12625,4.12827c0,2.27929-1.84891,4.12887-4.12625,4.12887c-2.28645,0-4.1302-1.84957-4.1302-4.12887&#10;&#9;C6.54755,8.45768,8.39129,6.60807,10.67775,6.60807"/><path fill="#FFFFFF" d="M18.70507,17.9948h6.82427v3.13147h0.0976c0.9492-1.8008,3.27213-3.69987,6.73573-3.69987&#10;&#9;c7.20827,0,8.5404,4.74293,8.5404,10.91213v12.56253h-7.11853V29.76173c0-2.65627-0.0456-6.0736-3.6992-6.0736&#10;&#9;c-3.7044,0-4.2696,2.8952-4.2696,5.88347v11.32947h-7.11067V17.9948z"/></g>
<g id="pinterest" class="social-icon"><path fill="#FFFFFF" d="M48,24c0,13.25491-10.74522,23.99987-24,23.99987S0,37.25491,0,24C0,10.74522,10.74522,0.00013,24,0.00013&#10;&#9;S48,10.74522,48,24"/><path fill="#BD081C" d="M23.97145,2.25318C11.96105,2.25318,2.22463,11.9896,2.22463,24&#10;&#9;c0,9.21299,5.73188,17.08208,13.82164,20.25073c-0.19021-1.72064-0.36175-4.35987,0.07557-6.23819&#10;&#9;c0.39505-1.69722,2.55008-10.8097,2.55008-10.8097s-0.65056-1.30266-0.65056-3.22869c0-3.02385,1.75266-5.2814,3.93495-5.2814&#10;&#9;c1.85531,0,2.75163,1.39299,2.75163,3.06335c0,1.86584-1.188,4.65539-1.80116,7.24071&#10;&#9;c-0.51232,2.16456,1.08551,3.92971,3.22038,3.92971c3.86524,0,6.83625-4.07552,6.83625-9.95849&#10;&#9;c0-5.20683-3.74144-8.84742-9.08377-8.84742c-6.18763,0-9.81961,4.64112-9.81961,9.43754c0,1.86906,0.72002,3.87337,1.61839,4.96285&#10;&#9;c0.17759,0.21527,0.20373,0.40405,0.15086,0.6237c-0.16514,0.68697-0.53199,2.16405-0.60402,2.46627&#10;&#9;c-0.0949,0.39812-0.31521,0.48248-0.72722,0.29086c-2.71624-1.26434-4.41427-5.2352-4.41427-8.42482&#10;&#9;c0-6.86006,4.98423-13.15994,14.36892-13.15994c7.54392,0,13.40669,5.37563,13.40669,12.55992&#10;&#9;c0,7.4948-4.7257,13.52656-11.28484,13.52656c-2.20353,0-4.27524-1.14479-4.98433-2.49712c0,0-1.09038,4.15217-1.35476,5.16964&#10;&#9;c-0.49112,1.88896-1.8164,4.25675-2.70293,5.7011c2.03484,0.62992,4.19713,0.96979,6.43895,0.96979&#10;&#9;c12.01053,0,21.74694-9.73641,21.74694-21.74694C45.71839,11.9896,35.98199,2.25318,23.97145,2.25318z"/></g>
<g id="tumblr" class="social-icon"><path fill="#35465D" d="M44,48H4c-2.20914,0-4-1.79086-4-4V4c0-2.20914,1.79086-4,4-4h40c2.20914,0,4,1.79086,4,4v40&#10;&#9;C48,46.20914,46.20914,48,44,48z"/><path fill="#FFFFFF" d="M31.56,32.0157c-0.55665,0.26505-1.62151,0.4965-2.41545,0.51705&#10;&#9;c-2.39655,0.06435-2.8608-1.68315-2.88135-2.9517V20.2617h6.01169v-4.53225H26.2851V8.10279c0,0-4.31385,0-4.3857,0&#10;&#9;c-0.0717,0-0.1977,0.06372-0.21525,0.22412c-0.25635,2.33422-1.34926,6.43067-5.8902,8.06765v3.86715h3.02925v9.78225&#10;&#9;c0,3.3486,2.47125,8.10645,8.99265,7.99515c2.2002-0.0381,4.64354-0.95955,5.18415-1.7535L31.56,32.0157z"/></g>
<g id="twitter" class="social-icon"><path fill="#69ACE0" d="M48,9.11341c-1.76603,0.78322-3.66389,1.31268-5.65607,1.55067&#10;&#9;c2.03332-1.21873,3.5948-3.14867,4.33001-5.44828c-1.90268,1.12855-4.01024,1.94811-6.25344,2.3898&#10;&#9;c-1.79636-1.914-4.35574-3.10992-7.18805-3.10992c-5.43885,0-9.84807,4.40923-9.84807,9.84756&#10;&#9;c0,0.77191,0.0871,1.5234,0.25495,2.24422c-8.1844-0.41065-15.4407-4.33121-20.29778-10.28923&#10;&#9;C2.49387,7.75272,2.0083,9.44432,2.0083,11.24909c0,3.41649,1.73858,6.43073,4.38093,8.19676&#10;&#9;c-1.61427-0.05109-3.13272-0.49415-4.4605-1.23177c-0.00069,0.04115-0.00084,0.08231-0.00084,0.1238&#10;&#9;c0,4.77144,3.39452,8.75168,7.8996,9.6563c-0.82642,0.22494-1.69641,0.34532-2.5945,0.34532&#10;&#9;c-0.63458,0-1.25149-0.06173-1.8528-0.17661c1.25319,3.91234,4.89001,6.75958,9.19929,6.83914&#10;&#9;c-3.37036,2.64116-7.61654,4.21549-12.23032,4.21549C1.55427,39.21751,0.77036,39.17088,0,39.08&#10;&#9;c4.35814,2.79408,9.53447,4.42431,15.09573,4.42431c18.11374,0,28.0189-15.00571,28.0189-28.01916&#10;&#9;c0-0.42694-0.00959-0.85164-0.02846-1.27394C45.01011,12.82274,46.67978,11.08826,48,9.11341z"/></g>
<g id="whatsapp" class="social-icon"><path fill="#3AC34C" d="M0.10739,48l3.37542-12.32542c-2.08204-3.60688-3.17763-7.69894-3.17592-11.89098&#10;&#9;C0.31215,10.66928,10.98554,0,24.09976,0c6.36475,0.00253,12.33865,2.47971,16.83067,6.97547&#10;&#9;c4.49214,4.49575,6.96465,10.47174,6.96218,16.82712c-0.00531,13.11432-10.67966,23.785-23.79253,23.785h-0.00006h-0.00974&#10;&#9;c-3.98213-0.00164-7.89481-1.00024-11.36995-2.89505L0.10739,48z"/><path fill-rule="evenodd" clip-rule="evenodd" fill="#FFFFFF" d="M18.15336,13.84087&#10;&#9;c-0.48253-1.1589-0.97266-1.0021-1.33759-1.02027c-0.34636-0.01724-0.74309-0.02088-1.13941-0.02088&#10;&#9;s-1.04036,0.14873-1.5853,0.74366c-0.54492,0.59496-2.08067,2.03281-2.08067,4.958c0,2.92519,2.13022,5.7512,2.42748,6.14787&#10;&#9;c0.29723,0.39667,4.19204,6.39961,10.15569,8.97392c1.41836,0.6123,2.52578,0.9779,3.38909,1.25194&#10;&#9;c1.42423,0.45222,2.72022,0.38844,3.74456,0.23544c1.14216-0.17059,3.51729-1.43777,4.01272-2.82601&#10;&#9;c0.49537-1.38824,0.49537-2.57817,0.34674-2.82608c-0.14856-0.24784-0.54491-0.3966-1.13937-0.69412&#10;&#9;c-0.59452-0.29745-3.51734-1.73529-4.06233-1.93359c-0.54491-0.19831-0.9412-0.29746-1.33755,0.29751&#10;&#9;c-0.39628,0.59491-1.5356,1.9336-1.88241,2.3302c-0.34674,0.39667-0.69355,0.44627-1.28801,0.14876&#10;&#9;c-0.59453-0.29745-2.51008-0.92506-4.7808-2.94978c-1.76725-1.57578-2.96047-3.52215-3.30725-4.11712&#10;&#9;c-0.34677-0.59496-0.03689-0.91665,0.26073-1.2129c0.26739-0.26626,0.59446-0.69412,0.89172-1.04118&#10;&#9;c0.29723-0.34706,0.39632-0.59497,0.59446-0.99157c0.19818-0.39667,0.09909-0.74372-0.04955-1.04121&#10;&#9;C19.83772,17.956,18.64879,15.03077,18.15336,13.84087z"/></g>
</svg>